<?xml version="1.0" encoding="utf-8"?>
<!-- Generator: Adobe Illustrator 15.0.0, SVG Export Plug-In . SVG Version: 6.00 Build 0)  -->
<!DOCTYPE svg PUBLIC "-//W3C//DTD SVG 1.0//EN" "http://www.w3.org/TR/2001/REC-SVG-20010904/DTD/svg10.dtd">
<svg version="1.0" id="Layer_1" xmlns="http://www.w3.org/2000/svg" xmlns:xlink="http://www.w3.org/1999/xlink" x="0px" y="0px"
	 width="744.05px" height="190.983px" viewBox="0 0 744.05 190.983" enable-background="new 0 0 744.05 190.983"
	 xml:space="preserve">
<g>
	<path fill-rule="evenodd" clip-rule="evenodd" fill="#87919A" d="M306.798,187.981l29.93-82.229
		c5.937-14.528,15.155-14.935,16.202-14.931c6.117,0.089,14.461-3.457,25.992-13.691c0.825-0.73,1.659-1.498,2.519-2.297
		l0.981-0.928c15.178-13.264,30.818-17.793,42.438-17.793c18.013,0,28.315,6.755,29.743,22.77
		c13.403-15.514,32.81-22.77,48.575-22.77c31.778,0,32.862,21.768,22.388,50.546l-29.597,81.323h-33.531l27.962-76.821
		c4.369-12.008,10.562-29.025-8.703-29.025c-22.271,0-34.681,26.523-40.784,43.292l-22.766,62.555h-33.528l27.963-76.821
		c4.372-12.008,10.562-29.025-8.706-29.025c-22.269,0-34.672,26.523-40.778,43.292l-22.769,62.555H306.798z"/>
	<polygon fill-rule="evenodd" clip-rule="evenodd" fill="#87919A" points="507.388,187.981 554.29,59.114 587.818,59.114 
		540.915,187.981 	"/>
	<path fill="#87919A" d="M337.587,58.478c2.726,0.535,5.703,1.199,8.865,2.027l1.513,0.363c2.989,0.858,6.165,1.83,9.441,2.977
		c-18.029,21.34-45.845,17.032-45.845,17.032l-1.771-0.274h-2.887c-9.151,0.031-21.381,3.285-26.353,14.297
		c-9.263,20.52,54.915,7.506,33.903,54.048c-13.557,30.03-45.75,42.036-73.027,42.036c-12.759,0-24.758-2.248-35.549-5.502
		l10.006-19.09h30.688c0.96,0.048,1.937,0.071,2.925,0.071c8.505,0,23.487-3.251,29.137-15.764
		c11.41-25.272-54.689-8.01-33.677-54.55c12.536-27.775,42.345-40.037,68.621-40.037C323.696,56.112,331.083,57.146,337.587,58.478z
		"/>
	<path fill-rule="evenodd" clip-rule="evenodd" fill="#87919A" d="M654.31,0.309l-58.844,161.673
		c-10.072,23.348-36.004,25.755-41.066,26.004l-1.925-0.004L620.781,0.309H654.31z"/>
	<path fill-rule="evenodd" clip-rule="evenodd" fill="#87919A" d="M653.946,110.911h57.051c4.918-16.264,2.516-30.277-16.25-30.277
		C675.975,80.634,661.731,93.646,653.946,110.911z M670.513,166.463c0.993,0,1.987-0.023,2.98-0.067h39.828l-5.212,14.328
		c-14.722,6.758-30.01,10.26-48.025,10.26c-42.54,0-58.384-24.521-42.993-66.81c13.571-37.284,44.54-68.062,84.578-68.062
		c47.793,0,49.375,32.78,32.98,77.821h-89.081C639.509,154.704,649.74,166.463,670.513,166.463z"/>
	<path fill-rule="evenodd" clip-rule="evenodd" fill="#B0D235" d="M557.606,49.707l8.059-22.142
		c1.491-3.782,5.569-9.891,22.969-9.891h14.16l-1.051,2.881c-11.228,29.036-42.262,29.146-42.262,29.146L557.606,49.707z"/>
</g>
<g>
	<defs>
		<circle id="SVGID_1_" cx="94.61" cy="94.609" r="94.61"/>
	</defs>
	<clipPath id="SVGID_2_">
		<use xlink:href="#SVGID_1_"  overflow="visible"/>
	</clipPath>
	<g clip-path="url(#SVGID_2_)">
		<path fill="#75B343" d="M-56.616,47.305c0-83.521,67.706-151.224,151.226-151.224S245.835-36.217,245.835,47.305
			c0,83.519-67.706,151.224-151.226,151.224S-56.616,130.823-56.616,47.305z"/>
		<circle fill="#75B343" cx="94.609" cy="47.305" r="122.917"/>
		<circle fill="#75B343" cx="94.609" cy="47.305" r="94.61"/>
		<circle fill="#78B443" cx="94.61" cy="47.305" r="93.529"/>
		<circle fill="#7AB542" cx="94.609" cy="47.305" r="92.448"/>
		<circle fill="#7CB642" cx="94.61" cy="47.305" r="91.368"/>
		<circle fill="#7EB642" cx="94.61" cy="47.305" r="90.287"/>
		<circle fill="#80B741" cx="94.609" cy="47.305" r="89.206"/>
		<circle fill="#82B841" cx="94.609" cy="47.305" r="88.125"/>
		<circle fill="#84B941" cx="94.61" cy="47.305" r="87.044"/>
		<circle fill="#86BA40" cx="94.609" cy="47.305" r="85.964"/>
		<circle fill="#88BB40" cx="94.61" cy="47.305" r="84.883"/>
		<circle fill="#8ABC40" cx="94.609" cy="47.305" r="83.803"/>
		<circle fill="#8CBD3F" cx="94.61" cy="47.305" r="82.722"/>
		<circle fill="#8EBE3F" cx="94.61" cy="47.305" r="81.64"/>
		<circle fill="#90BF3E" cx="94.609" cy="47.305" r="80.561"/>
		<circle fill="#92C03E" cx="94.61" cy="47.305" r="79.479"/>
		<circle fill="#94C13D" cx="94.61" cy="47.305" r="78.399"/>
		<circle fill="#96C23D" cx="94.609" cy="47.305" r="77.318"/>
		<circle fill="#98C33D" cx="94.609" cy="47.305" r="76.236"/>
		<path fill="#9AC43C" d="M19.454,47.305c0-41.508,33.646-75.156,75.155-75.156s75.157,33.648,75.157,75.156
			c0,41.511-33.648,75.156-75.157,75.156S19.454,88.815,19.454,47.305z"/>
		<circle fill="#9CC53C" cx="94.61" cy="47.305" r="74.076"/>
		<circle fill="#9EC63B" cx="94.609" cy="47.305" r="72.995"/>
		<circle fill="#A0C73A" cx="94.61" cy="47.305" r="71.914"/>
		<circle fill="#A2C83A" cx="94.609" cy="47.305" r="70.833"/>
		<circle fill="#A4CA39" cx="94.609" cy="47.305" r="69.752"/>
		<circle fill="#A6CB39" cx="94.61" cy="47.305" r="68.672"/>
		<circle fill="#A8CC38" cx="94.61" cy="47.305" r="67.59"/>
		<circle fill="#AACD38" cx="94.609" cy="47.305" r="66.511"/>
		<circle fill="#ACCF37" cx="94.609" cy="47.305" r="65.429"/>
		<circle fill="#AED036" cx="94.609" cy="47.305" r="64.349"/>
		<circle fill="#B0D235" cx="94.609" cy="47.305" r="63.269"/>
		<circle fill="#B0D235" cx="94.609" cy="47.305" r="62.188"/>
		<circle fill="#B1D237" cx="94.61" cy="47.305" r="61.133"/>
		<circle fill="#B2D238" cx="94.609" cy="47.305" r="60.079"/>
		<circle fill="#B3D33A" cx="94.609" cy="47.305" r="59.025"/>
		<circle fill="#B3D33C" cx="94.609" cy="47.305" r="57.971"/>
		<circle fill="#B4D33E" cx="94.609" cy="47.305" r="56.917"/>
		<circle fill="#B5D440" cx="94.61" cy="47.305" r="55.863"/>
		<circle fill="#B6D443" cx="94.61" cy="47.305" r="54.808"/>
		<circle fill="#B7D445" cx="94.61" cy="47.305" r="53.754"/>
		<circle fill="#B7D547" cx="94.609" cy="47.305" r="52.701"/>
		<path fill="#B8D549" d="M42.962,47.305c0-28.526,23.123-51.646,51.647-51.646c28.523,0,51.646,23.119,51.646,51.646
			c0,28.523-23.123,51.646-51.646,51.646C66.085,98.95,42.962,75.828,42.962,47.305z"/>
		<circle fill="#B9D64B" cx="94.609" cy="47.305" r="50.593"/>
		<circle fill="#BAD64D" cx="94.61" cy="47.305" r="49.539"/>
		<circle fill="#BAD650" cx="94.609" cy="47.305" r="48.484"/>
		<circle fill="#BBD752" cx="94.609" cy="47.305" r="47.431"/>
		<circle fill="#BCD754" cx="94.609" cy="47.305" r="46.376"/>
		<circle fill="#BDD757" cx="94.608" cy="47.305" r="45.322"/>
		<circle fill="#BDD859" cx="94.609" cy="47.305" r="44.269"/>
		<circle fill="#BED85B" cx="94.609" cy="47.305" r="43.214"/>
		<circle fill="#BFD95E" cx="94.609" cy="47.305" r="42.161"/>
		<circle fill="#C0D960" cx="94.61" cy="47.305" r="41.106"/>
		<circle fill="#C1D962" cx="94.609" cy="47.305" r="40.052"/>
		<circle fill="#C1DA65" cx="94.609" cy="47.305" r="38.998"/>
		<circle fill="#C2DA67" cx="94.609" cy="47.305" r="37.944"/>
		<circle fill="#C3DB69" cx="94.61" cy="47.305" r="36.89"/>
		<circle fill="#C3DB6C" cx="94.608" cy="47.305" r="35.837"/>
		<circle fill="#C4DC6E" cx="94.61" cy="47.305" r="34.782"/>
		<circle fill="#C5DC70" cx="94.609" cy="47.305" r="33.728"/>
		<circle fill="#C6DC72" cx="94.61" cy="47.305" r="32.674"/>
		<circle fill="#C7DD75" cx="94.61" cy="47.305" r="31.621"/>
		<circle fill="#C7DD77" cx="94.61" cy="47.305" r="30.566"/>
		<circle fill="#C8DE79" cx="94.61" cy="47.305" r="29.512"/>
		<circle fill="#C9DE7B" cx="94.609" cy="47.305" r="28.458"/>
		<circle fill="#CADF7D" cx="94.609" cy="47.305" r="27.403"/>
		<circle fill="#CADF7F" cx="94.61" cy="47.305" r="26.349"/>
		<circle fill="#CBDF81" cx="94.61" cy="47.305" r="25.297"/>
		<circle fill="#CCE083" cx="94.61" cy="47.305" r="24.242"/>
		<circle fill="#CDE085" cx="94.609" cy="47.305" r="23.189"/>
		<circle fill="#CEE187" cx="94.609" cy="47.305" r="22.134"/>
		<circle fill="#CEE189" cx="94.608" cy="47.305" r="21.08"/>
		<circle fill="#CFE28B" cx="94.609" cy="47.305" r="20.025"/>
		<circle fill="#D0E28D" cx="94.61" cy="47.305" r="18.973"/>
		<circle fill="#D1E28F" cx="94.61" cy="47.305" r="17.918"/>
		<circle fill="#D2E390" cx="94.61" cy="47.305" r="16.863"/>
		<circle fill="#D2E392" cx="94.61" cy="47.305" r="15.81"/>
		<circle fill="#D3E494" cx="94.609" cy="47.305" r="14.756"/>
		<circle fill="#D4E496" cx="94.609" cy="47.305" r="13.702"/>
		<circle fill="#D5E598" cx="94.609" cy="47.305" r="12.647"/>
		<circle fill="#D5E59A" cx="94.61" cy="47.305" r="11.594"/>
		<circle fill="#D6E69C" cx="94.61" cy="47.305" r="10.541"/>
		<circle fill="#D7E69E" cx="94.609" cy="47.305" r="9.486"/>
		<circle fill="#D8E6A0" cx="94.61" cy="47.305" r="8.432"/>
		<circle fill="#D9E7A2" cx="94.61" cy="47.305" r="7.378"/>
		<circle fill="#D9E7A4" cx="94.609" cy="47.305" r="6.323"/>
		<circle fill="#DAE8A6" cx="94.61" cy="47.305" r="5.27"/>
		<circle fill="#DBE8A8" cx="94.609" cy="47.305" r="4.216"/>
		<circle fill="#DCE9AA" cx="94.609" cy="47.305" r="3.161"/>
		<circle fill="#DCE9AC" cx="94.61" cy="47.305" r="2.107"/>
		<circle fill="#DDEAAE" cx="94.609" cy="47.305" r="1.054"/>
	</g>
</g>
<g>
	<defs>
		<path id="SVGID_3_" d="M0,94.609l0.013-1.622c16.461,35.781,52.629,60.622,94.597,60.622c41.969,0,78.136-24.844,94.596-60.625
			l0.015,1.625c0,52.251-42.357,94.609-94.61,94.609C42.357,189.219,0,146.86,0,94.609z"/>
	</defs>
	<clipPath id="SVGID_4_">
		<use xlink:href="#SVGID_3_"  overflow="visible"/>
	</clipPath>
	<g clip-path="url(#SVGID_4_)">
		<g>
			<defs>
				<path id="SVGID_5_" d="M0,94.609l0.013-1.622c16.461,35.781,52.629,60.622,94.597,60.622c41.969,0,78.136-24.844,94.596-60.625
					l0.015,1.625c0,52.251-42.357,94.609-94.61,94.609C42.357,189.219,0,146.86,0,94.609z"/>
			</defs>
			<clipPath id="SVGID_6_">
				<use xlink:href="#SVGID_5_"  overflow="visible"/>
			</clipPath>
			<g clip-path="url(#SVGID_6_)">
				<polygon fill="#75B343" points="0,92.984 189.22,92.984 189.22,189.219 0,189.219 0,92.984 				"/>
				<path fill="#75B343" d="M11.341,147.837c0-26.571,37.275-48.115,83.257-48.115s83.255,21.544,83.255,48.115
					c0,26.578-37.273,48.119-83.255,48.119S11.341,174.415,11.341,147.837z"/>
				<path fill="#75B343" d="M25.339,147.837c0-22.094,30.991-40.006,69.223-40.006s69.225,17.912,69.225,40.006
					c0,22.098-30.993,40.01-69.225,40.01S25.339,169.935,25.339,147.837z"/>
				<path fill="#75B343" d="M39.364,147.837c0-17.609,24.7-31.884,55.169-31.884c30.472,0,55.174,14.274,55.174,31.884
					c0,17.611-24.702,31.888-55.174,31.888C64.064,179.725,39.364,165.448,39.364,147.837z"/>
				<ellipse fill="#79B443" cx="94.584" cy="147.837" rx="54.097" ry="31.266"/>
				<path fill="#7CB542" d="M41.511,147.837c0-16.923,23.739-30.641,53.021-30.641s53.021,13.718,53.021,30.641
					c0,16.926-23.738,30.647-53.021,30.647S41.511,164.763,41.511,147.837z"/>
				<ellipse fill="#7FB742" cx="94.581" cy="147.837" rx="51.947" ry="30.021"/>
				<ellipse fill="#82B841" cx="94.528" cy="147.837" rx="50.872" ry="29.399"/>
				<path fill="#85BA41" d="M44.779,147.837c0-15.892,22.295-28.777,49.798-28.777c27.504,0,49.799,12.886,49.799,28.777
					c0,15.898-22.295,28.783-49.799,28.783C67.074,176.62,44.779,163.735,44.779,147.837z"/>
				<path fill="#87BB40" d="M45.803,147.837c0-15.55,21.812-28.159,48.722-28.159s48.724,12.609,48.724,28.159
					c0,15.555-21.814,28.163-48.724,28.163S45.803,163.392,45.803,147.837z"/>
				<path fill="#8ABC3F" d="M46.927,147.837c0-15.207,21.331-27.537,47.646-27.537c26.317,0,47.649,12.33,47.649,27.537
					c0,15.213-21.332,27.541-47.649,27.541C68.258,175.378,46.927,163.05,46.927,147.837z"/>
				<path fill="#8DBE3F" d="M47.948,147.837c0-14.865,20.852-26.915,46.573-26.915s46.573,12.05,46.573,26.915
					c0,14.869-20.852,26.919-46.573,26.919S47.948,162.706,47.948,147.837z"/>
				<path fill="#90BF3E" d="M49.072,147.837c0-14.521,20.37-26.293,45.499-26.293c25.128,0,45.499,11.771,45.499,26.293
					c0,14.525-20.371,26.297-45.499,26.297C69.442,174.134,49.072,162.362,49.072,147.837z"/>
				<ellipse fill="#93C13E" cx="94.519" cy="147.837" rx="44.423" ry="25.675"/>
				<ellipse fill="#96C23D" cx="94.568" cy="147.837" rx="43.35" ry="25.051"/>
				<path fill="#99C33C" d="M52.241,147.837c0-13.493,18.926-24.431,42.275-24.431c23.346,0,42.272,10.938,42.272,24.431
					c0,13.496-18.927,24.435-42.272,24.435C71.167,172.271,52.241,161.333,52.241,147.837z"/>
				<path fill="#9CC53C" d="M53.364,147.837c0-13.148,18.446-23.809,41.2-23.809c22.755,0,41.199,10.66,41.199,23.809
					c0,13.153-18.444,23.812-41.199,23.812C71.811,171.648,53.364,160.99,53.364,147.837z"/>
				<ellipse fill="#9FC73B" cx="94.513" cy="147.837" rx="40.125" ry="23.19"/>
				<ellipse fill="#A2C83A" cx="94.562" cy="147.837" rx="39.05" ry="22.568"/>
				<path fill="#A4CA39" d="M56.533,147.837c0-12.118,17.003-21.946,37.976-21.946c20.974,0,37.975,9.828,37.975,21.946
					c0,12.124-17.001,21.947-37.975,21.947C73.536,169.784,56.533,159.961,56.533,147.837z"/>
				<path fill="#A7CC38" d="M57.657,147.837c0-11.777,16.522-21.324,36.901-21.324c20.38,0,36.899,9.547,36.899,21.324
					c0,11.781-16.52,21.328-36.899,21.328C74.18,169.165,57.657,159.618,57.657,147.837z"/>
				<ellipse fill="#AACD37" cx="94.608" cy="147.837" rx="35.826" ry="20.706"/>
				<ellipse fill="#ADCF36" cx="94.555" cy="147.837" rx="34.751" ry="20.084"/>
				<path fill="#B0D235" d="M60.888,147.837c0-10.743,15.069-19.453,33.66-19.453c18.59,0,33.659,8.71,33.659,19.453
					c0,10.747-15.069,19.455-33.659,19.455C75.957,167.292,60.888,158.584,60.888,147.837z"/>
				<path fill="#B2D238" d="M61.904,147.837c0-10.406,14.598-18.844,32.607-18.844c18.009,0,32.605,8.438,32.605,18.844
					c0,10.41-14.597,18.848-32.605,18.848C76.502,166.685,61.904,158.247,61.904,147.837z"/>
				<ellipse fill="#B3D33B" cx="94.577" cy="147.837" rx="31.557" ry="18.237"/>
				<ellipse fill="#B5D43F" cx="94.541" cy="147.837" rx="30.504" ry="17.629"/>
				<path fill="#B6D443" d="M65.152,147.837c0-9.399,13.187-17.019,29.453-17.019c16.268,0,29.454,7.619,29.454,17.019
					c0,9.403-13.187,17.023-29.454,17.023C78.339,164.86,65.152,157.24,65.152,147.837z"/>
				<path fill="#B7D547" d="M66.169,147.837c0-9.062,12.715-16.412,28.401-16.412c15.685,0,28.399,7.35,28.399,16.412
					c0,9.067-12.715,16.416-28.399,16.416C78.884,164.253,66.169,156.904,66.169,147.837z"/>
				<path fill="#B9D54B" d="M67.186,147.837c0-8.728,12.243-15.806,27.348-15.806s27.348,7.078,27.348,15.806
					c0,8.733-12.243,15.807-27.348,15.807S67.186,156.57,67.186,147.837z"/>
				<path fill="#BAD64F" d="M68.302,147.837c0-8.394,11.773-15.196,26.297-15.196s26.297,6.803,26.297,15.196
					c0,8.397-11.773,15.2-26.297,15.2S68.302,156.234,68.302,147.837z"/>
				<ellipse fill="#BCD753" cx="94.563" cy="147.837" rx="25.246" ry="14.59"/>
				<path fill="#BDD857" d="M70.333,147.837c0-7.722,10.833-13.98,24.192-13.98c13.363,0,24.194,6.259,24.194,13.98
					c0,7.726-10.831,13.984-24.194,13.984C81.166,161.821,70.333,155.562,70.333,147.837z"/>
				<path fill="#BED85C" d="M71.45,147.837c0-7.387,10.361-13.371,23.142-13.371c12.781,0,23.142,5.984,23.142,13.371
					c0,7.388-10.36,13.379-23.142,13.379C81.812,161.216,71.45,155.225,71.45,147.837z"/>
				<path fill="#C0D960" d="M72.467,147.837c0-7.048,9.89-12.762,22.089-12.762c12.2,0,22.089,5.714,22.089,12.762
					c0,7.052-9.889,12.768-22.089,12.768C82.356,160.604,72.467,154.889,72.467,147.837z"/>
				<path fill="#C1DA64" d="M73.483,147.837c0-6.714,9.419-12.156,21.037-12.156c11.617,0,21.035,5.442,21.035,12.156
					c0,6.719-9.418,12.16-21.035,12.16C82.902,159.997,73.483,154.556,73.483,147.837z"/>
				<path fill="#C2DB68" d="M74.6,147.837c0-6.378,8.948-11.55,19.986-11.55c11.037,0,19.985,5.172,19.985,11.55
					c0,6.382-8.948,11.551-19.985,11.551C83.548,159.388,74.6,154.219,74.6,147.837z"/>
				<path fill="#C4DB6C" d="M75.616,147.837c0-6.04,8.476-10.943,18.933-10.943c10.456,0,18.933,4.903,18.933,10.943
					c0,6.044-8.477,10.944-18.933,10.944C84.092,158.781,75.616,153.881,75.616,147.837z"/>
				<ellipse fill="#C5DC71" cx="94.513" cy="147.837" rx="17.882" ry="10.334"/>
				<path fill="#C7DD75" d="M77.747,147.837c0-5.37,7.535-9.725,16.831-9.725c9.295,0,16.829,4.354,16.829,9.725
					c0,5.374-7.534,9.731-16.829,9.731C85.282,157.568,77.747,153.211,77.747,147.837z"/>
				<path fill="#C8DE78" d="M78.766,147.837c0-5.037,7.062-9.115,15.776-9.115c8.713,0,15.777,4.078,15.777,9.115
					c0,5.039-7.064,9.121-15.777,9.121C85.828,156.958,78.766,152.876,78.766,147.837z"/>
				<path fill="#C9DE7C" d="M79.881,147.837c0-4.699,6.593-8.508,14.727-8.508c8.135,0,14.728,3.809,14.728,8.508
					c0,4.703-6.593,8.513-14.728,8.513C86.474,156.35,79.881,152.54,79.881,147.837z"/>
				<ellipse fill="#CBDF80" cx="94.572" cy="147.837" rx="13.674" ry="7.901"/>
				<ellipse fill="#CCE083" cx="94.535" cy="147.837" rx="12.622" ry="7.293"/>
				<path fill="#CEE187" d="M83.029,147.837c0-3.688,5.182-6.688,11.573-6.688c6.388,0,11.568,2.999,11.568,6.688
					c0,3.697-5.181,6.691-11.568,6.691C88.211,154.528,83.029,151.534,83.029,147.837z"/>
				<ellipse fill="#CFE18B" cx="94.564" cy="147.837" rx="10.518" ry="6.078"/>
				<ellipse fill="#D1E28E" cx="94.528" cy="147.837" rx="9.466" ry="5.469"/>
				<path fill="#D2E391" d="M86.18,147.837c0-2.684,3.766-4.862,8.415-4.862c4.647,0,8.414,2.179,8.414,4.862
					c0,2.689-3.767,4.864-8.414,4.864C89.945,152.701,86.18,150.526,86.18,147.837z"/>
				<ellipse fill="#D3E495" cx="94.557" cy="147.837" rx="7.362" ry="4.254"/>
				<ellipse fill="#D5E598" cx="94.521" cy="147.837" rx="6.311" ry="3.646"/>
				<path fill="#D6E69C" d="M89.328,147.837c0-1.678,2.354-3.037,5.259-3.037c2.905,0,5.259,1.359,5.259,3.037
					c0,1.682-2.354,3.041-5.259,3.041C91.683,150.878,89.328,149.519,89.328,147.837z"/>
				<ellipse fill="#D8E69F" cx="94.55" cy="147.837" rx="4.208" ry="2.431"/>
				<ellipse fill="#D9E7A3" cx="94.515" cy="147.837" rx="3.154" ry="1.821"/>
				<ellipse fill="#DAE8A6" cx="94.58" cy="147.837" rx="2.103" ry="1.215"/>
				<ellipse fill="#DCE9AA" cx="94.543" cy="147.837" rx="1.051" ry="0.605"/>
			</g>
		</g>
	</g>
</g>
<path fill="#FFFFFF" d="M54.624,149.943l-0.233-0.146l-0.3-0.185L54.624,149.943z M141.681,139.553
	c10.321-5.853,5.625-0.433,1.675,3.538c-0.974,0.945-3.831,3.618-7.287,5.915c-0.41,0.269-0.823,0.531-1.238,0.791l-0.124,0.078
	c-11.9,7.406-25.565,11.615-40.099,11.615c-14.485,0-28.11-4.181-39.983-11.547l-0.533-0.331l-0.621-0.396
	c-4.445-2.901-7.961-6.479-7.961-6.479c-3.886-3.935-8-8.862,2.01-3.185c0.235,0.132,0.463,0.255,0.682,0.366
	c13.754,8.628,29.575,13.543,46.407,13.543c16.859,0,32.704-4.928,46.473-13.584C141.274,139.776,141.475,139.669,141.681,139.553z"
	/>
<g>
	<path fill="#FFFFFF" d="M114.657,95.706c-1.149-7.737,3.812-15.745,11.084-17.891c7.271-2.143,14.098,2.391,15.247,10.13
		c1.148,7.735-3.814,15.745-11.087,17.889C122.632,107.978,115.806,103.442,114.657,95.706z"/>
	<path fill="#FFFFFF" d="M127.824,91.825"/>
</g>
<g>
	<path fill="#FFFFFF" d="M73.476,95.706c1.146-7.737-3.819-15.745-11.091-17.891c-7.273-2.143-14.099,2.391-15.243,10.13
		c-1.146,7.735,3.819,15.745,11.092,17.889C65.505,107.978,72.33,103.442,73.476,95.706z"/>
	<path fill="#FFFFFF" d="M60.309,91.825"/>
</g>
</svg>
